<svg width="108" height="107" viewBox="0 0 108 107" fill="none" xmlns="http://www.w3.org/2000/svg">
<g id="&#240;&#159;&#166;&#134; icon &#34;food bank&#34;">
<path id="Vector" d="M48.65 17.3875L21.9 37.45C19.6708 39.1442 18.3333 41.7746 18.3333 44.5833V84.7083C18.3333 89.6125 22.3458 93.625 27.25 93.625H80.75C85.6541 93.625 89.6666 89.6125 89.6666 84.7083V44.5833C89.6666 41.7746 88.3291 39.1442 86.1 37.45L59.35 17.3875C56.1846 15.0246 51.8154 15.0246 48.65 17.3875ZM56.2291 55.7292C56.2291 59.4296 53.2421 62.4167 49.5416 62.4167V78.0208C49.5416 79.2692 48.5608 80.25 47.3125 80.25C46.0641 80.25 45.0833 79.2692 45.0833 78.0208V62.4167C41.3829 62.4167 38.3958 59.4296 38.3958 55.7292V44.5833C38.3958 43.335 39.3766 42.3542 40.625 42.3542C41.8733 42.3542 42.8541 43.335 42.8541 44.5833V55.7292H45.0833V44.5833C45.0833 43.335 46.0641 42.3542 47.3125 42.3542C48.5608 42.3542 49.5416 43.335 49.5416 44.5833V55.7292H51.7708V44.5833C51.7708 43.335 52.7516 42.3542 54 42.3542C55.2483 42.3542 56.2291 43.335 56.2291 44.5833V55.7292ZM65.1458 80.25C63.8975 80.25 62.9166 79.2692 62.9166 78.0208V64.6458H60.6875C59.4391 64.6458 58.4583 63.665 58.4583 62.4167V51.2708C58.4583 47.3475 60.9996 44.0038 64.5216 42.8446C65.9037 42.3542 67.375 43.4688 67.375 44.9846V78.0208C67.375 79.2692 66.3941 80.25 65.1458 80.25Z" fill="white"/>
</g>
</svg>
